<svg xmlns="http://www.w3.org/2000/svg" xmlns:xlink="http://www.w3.org/1999/xlink" viewBox="0 0 396 441">
  <defs>
    <style>
      .cls-1 {
        fill: url(#linear-gradient);
      }

      .cls-2 {
        fill: #eee;
      }
    </style>
    <linearGradient id="linear-gradient" x1="0.5" x2="0.5" y2="1" gradientUnits="objectBoundingBox">
      <stop offset="0" stop-color="#039be5"/>
      <stop offset="0.561" stop-color="#20b6bc"/>
      <stop offset="1" stop-color="#33c8a1"/>
    </linearGradient>
  </defs>
  <g id="icons" transform="translate(-1278 -354)">
    <g id="noun_Rubik_s_Cube_1307811" data-name="noun_Rubik&apos;s Cube_1307811" transform="translate(1268.342 348.822)">
      <path id="Path_1763" data-name="Path 1763" class="cls-1" d="M136.444,31.084l-71-19-44,34,72,19Z" transform="translate(47.214 28.094)"/>
      <path id="Path_1764" data-name="Path 1764" class="cls-1" d="M31.375,128.689l46,39v-75l-46-38Z" transform="translate(84.283 195.489)"/>
      <path id="Path_1765" data-name="Path 1765" class="cls-1" d="M142.537,65.621l37-32-76-20-38,31Z" transform="translate(218.121 33.557)"/>
      <path id="Path_1766" data-name="Path 1766" class="cls-1" d="M31.375,142.136l46,40v-71l-46-39Z" transform="translate(84.283 261.042)"/>
      <path id="Path_1767" data-name="Path 1767" class="cls-1" d="M39.736,54.222v-1l-19-5v62l45,39v-73Z" transform="translate(42.922 168.956)"/>
      <path id="Path_1768" data-name="Path 1768" class="cls-1" d="M48.244,56.368l-37-11,1,37,37,32Z" transform="translate(7.414 158.811)"/>
      <path id="Path_1769" data-name="Path 1769" class="cls-1" d="M11.854,54.469l1,72,38,33-2-72Z" transform="translate(7.804 194.709)"/>
      <path id="Path_1770" data-name="Path 1770" class="cls-1" d="M21.346,133.644l44,38v-71l-45-38Z" transform="translate(43.312 225.534)"/>
      <path id="Path_1771" data-name="Path 1771" class="cls-1" d="M43.551,174.21l72-27v-73l-72,27Z" transform="translate(131.107 271.968)"/>
      <path id="Path_1772" data-name="Path 1772" class="cls-1" d="M76.664,140.977l66-23v-72l-66,21Z" transform="translate(262.993 159.201)"/>
      <path id="Path_1773" data-name="Path 1773" class="cls-1" d="M82.813,52.99v66l38-35v-65Z" transform="translate(284.845 56.189)"/>
      <path id="Path_1774" data-name="Path 1774" class="cls-1" d="M76.664,158.644l66-25v-71l-66,24Z" transform="translate(262.993 225.534)"/>
      <path id="Path_1775" data-name="Path 1775" class="cls-1" d="M60.047,166.012l69-25v-72l-69,25Z" transform="translate(198.611 248.166)"/>
      <path id="Path_1776" data-name="Path 1776" class="cls-1" d="M43.551,79.2v74l72-26v-66l-12-3Z" transform="translate(131.107 207.976)"/>
      <path id="Path_1777" data-name="Path 1777" class="cls-1" d="M68.047,95.687l-8-2v57l69-25v-75l-20,8Z" transform="translate(198.611 179.491)"/>
      <path id="Path_1778" data-name="Path 1778" class="cls-1" d="M27.422,50.028l72,54,54-18Z" transform="translate(70.236 177.15)"/>
      <path id="Path_1779" data-name="Path 1779" class="cls-1" d="M101.373,124.9v-70l-74-20v69Z" transform="translate(68.285 116.279)"/>
      <path id="Path_1780" data-name="Path 1780" class="cls-1" d="M73.983,24.7l-47,37,80,21h0l44-37Z" transform="translate(68.675 76.479)"/>
      <path id="Path_1781" data-name="Path 1781" class="cls-1" d="M156.061,36.915l-75-20-43,34,77,20Z" transform="translate(111.597 45.263)"/>
      <path id="Path_1782" data-name="Path 1782" class="cls-1" d="M122.308,60.56l-78-21v71l78,22Z" transform="translate(137.35 134.618)"/>
      <path id="Path_1783" data-name="Path 1783" class="cls-1" d="M153.711,60.658l-29-20-51,47Z" transform="translate(248.946 138.52)"/>
      <path id="Path_1784" data-name="Path 1784" class="cls-1" d="M73.492,129.774l39-36v-66l-39,34Z" transform="translate(248.166 87.404)"/>
      <path id="Path_1785" data-name="Path 1785" class="cls-1" d="M129.756,38.868l-72-19-47,37,72,19Z" transform="translate(3.902 59.31)"/>
      <path id="Path_1786" data-name="Path 1786" class="cls-1" d="M168.747,51.36l-79-22-45,37,81,22Z" transform="translate(138.91 94.818)"/>
      <path id="Path_1787" data-name="Path 1787" class="cls-1" d="M122.871,59.4l37-31-73-19-38,30Z" transform="translate(151.787 16.779)"/>
      <path id="Path_1788" data-name="Path 1788" class="cls-1" d="M82.658,49.239l-73-19,2,68,71,20Z" transform="translate(0 97.94)"/>
      <path id="Path_1789" data-name="Path 1789" class="cls-1" d="M141.863,23.178l-72-18-38,29,72,19Z" transform="translate(87.795 0)"/>
      <path id="Path_1790" data-name="Path 1790" class="cls-1" d="M97.167,21.356l-42,35,80,21,40-35Z" transform="translate(179.491 62.822)"/>
      <path id="Path_1791" data-name="Path 1791" class="cls-1" d="M105.512,35.387l-42,38h0v69l42-39Z" transform="translate(209.146 119.791)"/>
      <path id="Path_2400" data-name="Path 2400" d="M108.658,246.178l27-10,13,3-33,12Z"/>
      <path id="Path_2401" data-name="Path 2401" d="M1596,5229l-7-6,10-10,10,12Z" transform="translate(-1268.342 -4998.822)"/>
    </g>
    <path id="noun_Brain_1779750" class="cls-2" d="M12,43.8l3-3,5,1h0l3-1-2,5-6,2Zm0-8c-.047-.189.142.047,0,0l-2-1v-1c0-.331.331,0,0,0s-1-.331-1,0v2c0,.237.811-.095,1,0l1,1-2,2c-.095.095,0,.858,0,1s-.095-.095,0,0-.095,0,0,0c.142,0,.905.142,1,0l2-3A2.37,2.37,0,0,0,12,35.8Zm10-4c.047-.142.047.142,0,0s.142,0,0,0a7.048,7.048,0,0,0-1,0c-.142.047,0-.095,0,0v2l-4-1a7.04,7.04,0,0,0-1,0l-3,2c-.237.095-.047-.237,0,0v3l-2,2c-.237.142-.095-.284,0,0l1,2c.095.189-.189,0,0,0h0c.331-.142,1.142-.716,1-1l-1-1,2-1c.189-.095,1-.763,1-1l-1-2,3-2,4,1v1c.189.284.716.189,1,0,.095-.095-.047.095,0,0,0-.142.095-.905,0-1v-3Zm11-6a3.533,3.533,0,0,0,0,1v2l-1,1H31c-.189-.095.047-.047,0,0H29l-2-3c-.047-.095.095.047,0,0-.142-.047.142-.095,0,0l-4,2H22c-.142,0-.905-.095-1,0s0-.142,0,0-.095.905,0,1,.858,0,1,0h1a7.013,7.013,0,0,0,1,0l3-2,1,3H27c-.142.047-.953-.142-1,0-.047.095-.047-.142,0,0a5,5,0,0,0,1,1c.142.047-.142.047,0,0l4-1,2,1,2,3c.095.189-.189,0,0,0,.095,0-.047.047,0,0a9.969,9.969,0,0,0,1-1c.047-.142.047.142,0,0l-2-2c-.047-.095.095-.953,0-1H33l1-2h0a3.537,3.537,0,0,0,1,0c.095-.095-.047.095,0,0,0-.142.095.142,0,0-.095-.095.095-.953,0-1H34v-1c-.095-.331-.669-1.095-1-1C32.811,25.847,33.095,25.658,33,25.8Zm5-6c-.189-.047-.905-.142-1,0l-2,2c-.095.095,0-.095,0,0,0,.142-.095.953,0,1,.284.189.811-.716,1-1l2-1h3l1,3c.047.095-.095-.095,0,0l2,1,1,1-1,1-1-2c-.047-.095-.858,0-1,0-.142-.047.142-.095,0,0-.095.095,0,.905,0,1-.047.142-.095-.142,0,0l1,2c.047.095-.142-.047,0,0h0a3.533,3.533,0,0,0,1,0l1-1h2l-1,4-3,1v-2c0-.237.237-.905,0-1l-2-1a3.533,3.533,0,0,0-1,0c-.142.047.047.858,0,1-.095.331-.284-.142,0,0l1,1-3,1v-1l1-1c.237-.095,1.047-.763,1-1l-1-3c0-.142.095.095,0,0s.095,0,0,0H36l-1-2c-.047-.189.189-1,0-1H33a2.37,2.37,0,0,0-1,0c-.095.095,0,.858,0,1s-.095-.142,0,0c.095.095.858,0,1,0h1l1,3c.095.237.763.047,1,0h2l1,2-2,1c-.142.047.047-.142,0,0s-.095-.142,0,0l1,3c.047.142-.142-.047,0,0a3.533,3.533,0,0,0,1,0l3-2v2l-5,2c-.142.047.047.858,0,1l-1,2H34v-2a2.539,2.539,0,0,0-1-1l-6-1c-.189-.047.142-.142,0,0l-1,1-1-1v-1c-.047-.142.142.047,0,0a3.533,3.533,0,0,0-1,0c-.142.047.047-.142,0,0-.047.095-.047-.142,0,0l1,2c.047.189-.142-.047,0,0v1l-1,1H23c-.095.095.047.858,0,1s-.047-.142,0,0c.047.095-.095-.047,0,0a3.537,3.537,0,0,0,1,0h1l2-2h0v-1l6,1v2c0,.189-.189.905,0,1h2v1l-3,1-1-2c-.142-.237-.763-.095-1,0l-3,1-2-1c-.095-.095.142,0,0,0s.095-.095,0,0,0-.142,0,0c.047.142-.142.905,0,1l1,1a2.373,2.373,0,0,0,1,0l3-1,1,1-2,1c-.142.047-.953-.142-1,0l-3,7H22v-2c0-.047.047.047,0,0l2-5h4c.142,0-.142.095,0,0,.095-.095-.047.142,0,0,0-.142.095.142,0,0-.095-.095.095-1,0-1H23c-.047,0,.095-.047,0,0l-2,1v-2c0-.237-.763.047-1,0l-3-1v-1c-.047-.095.095.047,0,0a3.533,3.533,0,0,0-1,0c-.095.047.047-.095,0,0s-.047-.142,0,0l1,2c.047.142-.142-.047,0,0l3,1v1h0l-4-1c-.142,0-.905.905-1,1l-4,2-5-2-1-5H7v1a2.373,2.373,0,0,0,0,1l1,1c.095.142-.142,0,0,0,.095,0-.047.047,0,0,.095-.047,0,.142,0,0a3.537,3.537,0,0,0,0-1v-2a1.452,1.452,0,0,0,0-1c-.095-.189.237-.047,0,0H5v-2l2-5,1,1v2c-.047.284-.284.953,0,1l4,1h0c.284,0-.047-.763,0-1,.047-.142.095.142,0,0-.095-.095.142,0,0,0l-3-1v-2c0-.189.142-.858,0-1l-2-1,2-3,2,2c.142.142-.189.047,0,0h0l1,1v2c-.047.237-.189.858,0,1h1v2c-.047.142-.047-.095,0,0s-.142-.047,0,0h1c.284,0-.047.237,0,0v-1l1,1c.284.189.811-.716,1-1,.047-.095,0,.142,0,0-.047-.142.142.095,0,0l-2-1h0l-1-1v-2c0-.095.047.095,0,0l-1-1,1-1c.142-.047.953.142,1,0a3.533,3.533,0,0,0,0-1c-.047-.095-.858.095-1,0-.095-.047.142-.047,0,0l-2,1-2-2v-1l3-1,1,2c.095.189-.142,0,0,0l6,1,2,2-2,2v-1c-.047-.142.095.047,0,0a3.533,3.533,0,0,0-1,0c-.142.047.047-.142,0,0-.047.095-.047-.142,0,0v1H16v-1c-.047-.142.142.047,0,0a3.533,3.533,0,0,0-1,0c-.142.047.047-.142,0,0-.047.095-.047-.142,0,0v2c.095.237.763,0,1,0h3c.142,0-.095.142,0,0l3-3c.189-.189.189.237,0,0l-3-3c-.095-.095.142-.953,0-1H14l-1-1,3-2,1,1c.095.284-.284,1.047,0,1l2-1,3,1v3c.047.237-.189-.095,0,0l4,1h0c.284,0-.095.237,0,0a2.373,2.373,0,0,0,0-1c-.095-.095.142.047,0,0l-3-1v-2c-.047-.189-.811.047-1,0l-2-1h1c.095-.047-.047.095,0,0a2.373,2.373,0,0,0,0-1c-.189-.284-.716-.142-1,0l-1,1v-1h0l-2,1v-1l6-3,15,1,10,8-1,1H46l-1-2c-.047-.189.142.047,0,0l-2-1-1-2c-.047-.095-.858.047-1,0Zm-9-3c0-.142.095.142,0,0-.095-.095-.905.047-1,0H24c-.189,0-.905-.142-1,0l-1,2a3.52,3.52,0,0,0,0,1c.047.142-.142-.047,0,0h5v1l-1,1c-.095.095,0,.811,0,1,.047.189-.142-.095,0,0l4,2-1,4c0,.142.905-.095,1,0s-.095-.047,0,0h0c.284,0-.047.331,0,0l1-4c.047-.189.189-.905,0-1l-4-2h1c.095-.095,0-.858,0-1v-1c-.047-.331.331-1,0-1H23l1-1h4a3.537,3.537,0,0,0,1,0C29.047,17.705,28.953,16.942,29,16.8Zm4,0c-.095.047.047.905,0,1l-1,1H31c-.142,0-.905-.095-1,0s0-.142,0,0-.095.905,0,1,.905,0,1,0h1l1,1c.095.189-.237,0,0,0h0c.142-.047,1,.095,1,0,.047-.095-.905-.858-1-1v-1l1-1c.047-.095.047.142,0,0a5,5,0,0,0-1-1C32.858,16.705,33.142,16.752,33,16.8Z" transform="translate(1381 707.2)"/>
    <path id="noun_Eye_1779760" class="cls-2" d="M29.446,47.372a.479.479,0,0,0,.37-.158.528.528,0,0,0-.37-.9H26.278a.479.479,0,0,0-.37.158.528.528,0,0,0,.37.9Zm-16.315-26.4,3.221-4.7L23.9,12.1H36.31l7.55,4.171,4.646,6.811v7.867l-2.482-.158-4.277-2.27H41.7l-1.478-.739L41.01,23.4c0-.158,0-.264-.053-.317l-.9-2.112a.9.9,0,0,0-.317-.317.578.578,0,0,0-.422,0,.616.616,0,0,0-.317.317.413.413,0,0,0,.053.422l.792,1.954-.792,4.33-1,.106-2.112-.95.053-2.165a.388.388,0,0,0-.211-.422l-1.214-1c-.317-.211-.581-.211-.792.106a.5.5,0,0,0-.106.37.354.354,0,0,0,.211.37l1,.845-.106,2.218a.53.53,0,0,0,.317.528l2.64,1.162a.4.4,0,0,0,.264.053l1.584-.211.686.37-1.8,1.214-2.8-1.056a.639.639,0,0,0-.528.053l-1.478.95a.947.947,0,0,0-.264.37.635.635,0,0,0,.106.422.947.947,0,0,0,.37.264.438.438,0,0,0,.422-.106l1.214-.792,2.8,1.056a.639.639,0,0,0,.528-.053l2.534-1.69,3.326,1.742-3.221,2.059a.372.372,0,0,0-.211.264l-1.162,2.693-1.954-1.214a1,1,0,0,0-.422-.106c-.106.053-.264.106-.317.264a1,1,0,0,0-.106.422.611.611,0,0,0,.264.37l2.059,1.32-.9,2.112-3.115.528a.534.534,0,0,0-.37.211,1,1,0,0,0-.106.422.534.534,0,0,0,.211.37.5.5,0,0,0,.37.106l3.432-.528a.548.548,0,0,0,.422-.317l2.587-5.966,3.8-2.376,2.323.158v3.96l-5.122,8.4-7.339,3.96H24.114l-7.286-3.96-3.115-5.28,1.056-.528a.7.7,0,0,0,.264-.317L17.3,31.11a.236.236,0,0,0,0-.264L15.93,23.454a.485.485,0,0,0-.211-.317ZM29.5,13.263H24.483l-.264.053-2.957,1.69a.776.776,0,0,0-.264.317.626.626,0,0,0,.053.422.462.462,0,0,0,.475.264l.264-.053,2.8-1.584H29.5a.479.479,0,0,0,.37-.158.51.51,0,0,0,0-.739A.354.354,0,0,0,29.5,13.263Zm-16,.106L22.635,8.3H37.683l9.134,5.122,5.7,8.237V37.34L46.29,47.53l-8.87,4.8H22.9l-8.87-4.752L9.171,38.026,5,33.274V26.78l3.907-4.858Zm10.243-2.376a.4.4,0,0,0-.264.053l-7.762,4.33a.283.283,0,0,0-.211.158L10.65,22.556a.75.75,0,0,0-.106.317V36.126a.4.4,0,0,0,.106.264l1.8,2.957H12.5L15.982,45c0,.053.106.158.211.211l7.55,4.066c.106.053.158.106.264.106h12.25a.4.4,0,0,0,.264-.106l7.55-4.013.211-.211,5.28-8.659a.4.4,0,0,0,.106-.264V22.873a.75.75,0,0,0-.106-.317l-4.91-7.022c-.053-.106-.106-.158-.211-.158l-7.762-4.33a.4.4,0,0,0-.264-.053Z" transform="matrix(0.985, -0.174, 0.174, 0.985, 1446.172, 637.12)"/>
    <path id="noun_Lungs_1779746" class="cls-2" d="M42.308,18.289a.722.722,0,0,0-.134.536l1.139,6.9-2.076,8.64a.485.485,0,0,0,.134.536L48.4,45.014l2.344,10.248a.708.708,0,0,0,.4.469l9.511,4.019-3.416,2.545-14.066-.134-4.89-7.234.8-.469L40.232,56.4c.134.2.268.335.469.335l2.344.335h.134a.616.616,0,0,0,.67-.6.556.556,0,0,0-.134-.536.678.678,0,0,0-.469-.268L41.236,55.4,40.1,53.453l.871-1.675.536.134a.71.71,0,1,0,.2-1.407l-1.072-.2a.607.607,0,0,0-.737.4l-1.206,2.277-1.34.737-.4-.536,1.072-5.76h1.942a.608.608,0,0,0,.469-.2,1.08,1.08,0,0,0,.268-.469l.2-2.009.938.2a.756.756,0,0,0,.536-.067c.2-.067.268-.268.335-.4a.794.794,0,0,0-.067-.536.985.985,0,0,0-.4-.335l-1.675-.469a.42.42,0,0,0-.536.134.854.854,0,0,0-.335.469l-.268,2.277H38.49L41.571,29.34,41.1,16.681l3.684-1.273L54.833,21.1,65.282,42.067,64.612,56.8,62,58.812l-9.98-4.22-2.277-9.98a.508.508,0,0,0-.134-.268l-6.9-9.98,2.009-8.506c.067-.067.067-.134,0-.268l-1.139-7.033a.678.678,0,0,0-.268-.469.722.722,0,0,0-.536-.134A.775.775,0,0,0,42.308,18.289Zm10.717,5.024-.268-.268-2.612-1.808a.722.722,0,0,0-.536-.134.678.678,0,0,0-.469.268.64.64,0,0,0,.2,1l2.545,1.741L53.829,27.8a.672.672,0,0,0,.67.4l.335-.067a.985.985,0,0,0,.335-.4A.794.794,0,0,0,55.1,27.2Zm-22.438,8.1,1.34-1.34,1.541,2.88a.586.586,0,0,0,.6.335.5.5,0,0,0,.335-.067.985.985,0,0,0,.335-.4.524.524,0,0,0-.067-.536L33,29.005a.724.724,0,0,0,.2-.469V27h4.019V28.6a.724.724,0,0,0,.2.469l.4.4-2.076,2.88a.722.722,0,0,0-.134.536.678.678,0,0,0,.268.469.952.952,0,0,0,.4.134.544.544,0,0,0,.536-.268l1.942-2.679.871.871-1,5.492-3.081-2.277a.67.67,0,0,0-.8,0l-3.148,2.277ZM20.673,21.1a.556.556,0,0,0-.536.134l-2.612,1.808-.268.268L15.248,27.13a.756.756,0,0,0-.067.536.686.686,0,0,0,.335.4l.335.067a.672.672,0,0,0,.67-.4l1.942-3.684,2.478-1.741a.64.64,0,0,0,.2-1C21.008,21.236,20.807,21.169,20.673,21.1Zm12.458,4.488V23.848h4.019v1.741Zm0-3.148V20.432h4.019v2.009ZM26.97,18.088a.678.678,0,0,0-.268.469l-1.139,6.966v.268L27.572,34.3l-6.9,10.047-.134.268-2.277,9.98L8.081,58.611,5.67,56.869,5,42.134,15.516,21.169l10.047-5.693,3.684,1.273-.469,12.659,1.675,8.908v.067l2.612,13.932-1.34-1.072-2.411-1.407.335-1.273a.756.756,0,0,0-.067-.536.425.425,0,0,0-.4-.335.756.756,0,0,0-.536.067.5.5,0,0,0-.335.4l-.536,1.675a.571.571,0,0,0,.335.8l1.675,1-1.273.737-2.545-.469a.805.805,0,0,0-.536.134,1.2,1.2,0,0,0-.335.469.805.805,0,0,0,.134.536.678.678,0,0,0,.469.268l2.813.536a1.14,1.14,0,0,0,.469-.067l2.143-1.273,1.608,1.273-2.813,4.153-1-1.608A.854.854,0,0,0,28.443,56a.509.509,0,0,0-.6.2l-2.21,2.21a.761.761,0,0,0-.2.536.663.663,0,0,0,1.139.469l1.608-1.608.871,1.407L27.1,62.161l-14,.134L9.488,59.615l9.645-3.885a.489.489,0,0,0,.4-.469l2.344-10.248L28.912,34.9a.722.722,0,0,0,.134-.536l-2.076-8.64,1.139-6.9a.556.556,0,0,0-.134-.536.678.678,0,0,0-.469-.268A.794.794,0,0,0,26.97,18.088Zm6.162-2.612V13.6h4.019v1.875Zm0,3.55V16.949h4.019v2.076Z" transform="matrix(0.985, 0.174, -0.174, 0.985, 1462.26, 525.841)"/>
    <path id="noun_orthopedic_1779755" class="cls-2" d="M45.221,50.439a.827.827,0,0,0-.5.186.706.706,0,0,0-.186.5v6.465a.827.827,0,0,0,.186.5.706.706,0,0,0,.5.186.827.827,0,0,0,.5-.186.515.515,0,0,0,.186-.5V51.123a.827.827,0,0,0-.186-.5C45.532,50.563,45.407,50.439,45.221,50.439ZM44.786,7.3a.827.827,0,0,0-.5.186.671.671,0,0,0-.186.435v6.34l.062.311,2.051,3.605c.062.249.249.311.559.311.186,0,.249,0,.311-.062.186-.062.249-.249.311-.373a.66.66,0,0,0-.062-.5l-1.989-3.481V7.922a.827.827,0,0,0-.186-.5A.666.666,0,0,0,44.786,7.3ZM28,42.172l.5-4.848,2.424-1.057,4.165,2.424a.671.671,0,0,0,.684,0l5.719-3.232,6.34,3.667a.488.488,0,0,0,.684,0L52.68,36.7l2.486,1.057.435,4.848-7.024,5.905a.565.565,0,0,0-.249.5V60.944H35.213V48.636a.565.565,0,0,0-.249-.5Zm4.04-36.985V5H48.2l.062,9.448a.884.884,0,0,0,.124.373L55.85,25.388,55.1,32.661l-7.77,2.549L41.3,32.288a.466.466,0,0,0-.559,0L34.778,35.21l-7.832-2.549L26.2,25.388l5.781-10.5.124-.311V5.186Z" transform="matrix(0.105, 0.995, -0.995, 0.105, 1506.04, 393.06)"/>
  </g>
</svg>
