<svg xmlns="http://www.w3.org/2000/svg" viewBox="0 0 1108.864 1108.863"><defs><style>.a{fill:#41b9ce;}.b{fill:#0288d1;}.c{fill:#92ce41;}.d,.f{fill:#eee;}.d{font-size:20px;font-family:HelveticaNeue-Medium, Helvetica Neue;font-weight:500;}.e{fill:rgba(238,238,238,0.7);}</style></defs><g transform="translate(12.932 14.432)"><path class="a" d="M-6176.948-4491.575q-1.824.083-3.67.084a79,79,0,0,1-79-79,79,79,0,0,1,73.021-78.777c27.021-185.634,186.853-328.223,379.979-328.223,212.078,0,384,171.923,384,384s-171.922,384-384,384C-5983.41-4209.49-6132.3-4328.963-6176.948-4491.575Z" transform="translate(-516.02 7895.303) rotate(60)"/><path class="b" d="M-4186.948-4491.575q-1.824.083-3.67.084a79,79,0,0,1-79-79,79,79,0,0,1,73.021-78.776c27.021-185.634,186.852-328.223,379.979-328.223,212.077,0,384,171.923,384,384s-171.923,384-384,384C-3993.41-4209.49-4142.3-4328.962-4186.948-4491.575Z" transform="translate(1579.921 6443.639) rotate(30)"/><g transform="translate(289.619 327.49)"><path class="c" d="M-1907.328-4164.084q-1.825.083-3.671.084a79,79,0,0,1-79-79,79,79,0,0,1,73.023-78.777C-1889.957-4507.411-1730.127-4650-1537-4650c212.078,0,384,171.923,384,384s-171.922,384-384,384C-1713.792-3882-1862.678-4001.472-1907.328-4164.084Z" transform="translate(1823.381 4478.51)"/><text class="d" transform="translate(-90.619 280.51) rotate(-90)"><tspan x="0" y="0">Our Team</tspan></text><path class="b" d="M251.819,192.565c0-71.031-48.793-128-109-128s-109,57.645-109,128v63h218" transform="translate(154.563 123.945)"/><path class="e" d="M105.77,43.51a65,65,0,1,1-65,65A65.057,65.057,0,0,1,105.77,43.51Z" transform="translate(192.611 0)"/><path class="e" d="M72.317,43.51a65,65,0,1,1-65,65A65.057,65.057,0,0,1,72.317,43.51Z" transform="translate(0.064 0)"/><path class="e" d="M203.223,108.51c0,35.854-28.146,65-64,65a65,65,0,0,1,0-130C175.077,43.51,203.223,72.656,203.223,108.51Z" transform="translate(385.158 0)"/><path class="a" d="M11.381,248.586s-10.824-117.176,0-151c2.706-8.118,15.882-22.618,24-26,16.236-7.441,55.764-8.118,72,0,23,11.5,51,60.5,74,72,12.853,6.088,41.794-.676,56,0,25.707,1.353,26.5,44,15,44h-76c-14.206,0,0,61,0,61" transform="translate(0 129.924)"/><path class="a" d="M303.625,251.586c0-35.008,10.824-120.176,0-154-2.706-8.118-15.882-22.618-24-26-16.236-7.441-55.764-8.118-72,0-23,11.5-50,60.5-73,72-12.853,6.088-42.794-.676-57,0-25.707,1.353-25.5,44-14,44h76c14.206,0,0,64,0,64" transform="translate(277.756 129.924)"/><g transform="translate(300.083 310.362)"><g transform="translate(-90.4 -23.853)"><g transform="translate(0.305 0.162)"><path class="f" d="M71,9.843c-.006.328.267.809,0,1a1.2,1.2,0,0,1-1,0c-1.9-.6-4.031-1.671-6-2h0a40.375,40.375,0,0,0-9,0c-.137.005-.956.13-1,0s-.112-.921,0-1a122.3,122.3,0,0,1,11-6c1.052-.558,1.931-1.476,3-2a2.42,2.42,0,0,1,2,0,3,3,0,0,1,1,2C71.139,4.486,71.034,7.166,71,9.843Z" transform="translate(34.394 -20.005)"/><path class="f" d="M45.922,105.034c.315.039.846.722,1,1a1.211,1.211,0,0,1,0,1,17.461,17.461,0,0,1-10,9,16.441,16.441,0,0,1-13-1c-.281-.147.046-.686,0-1s-.226-.778,0-1A27.244,27.244,0,0,1,45.922,105.034Z" transform="translate(54.47 -89.196)"/><path class="f" d="M34.4,72.976c.1-.645-.377-.8-1-1-.352-.11-.643.1-1,0a40.664,40.664,0,0,0-4-1c-.795-.129-2.21-.928-3-1a34.5,34.5,0,0,0-25,8c-.481.386-.094,1.391,0,2a13.952,13.952,0,0,0,2,6,3.225,3.225,0,0,0,2,1c.654.109,1.48.411,2,0a33.919,33.919,0,0,1,25-7h0c.688.11.829-.325,1-1,.007-.024.995.026,1,0,.268-1.346-.243-3.5,0-5C33.415,73.86,34.378,73.094,34.4,72.976Z" transform="translate(69.996 -66.139)"/><path class="f" d="M35.832,37.3c.033-.606-.427-.8-1-1a28.932,28.932,0,0,0-9-2,38.736,38.736,0,0,0-12,1,19.978,19.978,0,0,0-5,3c-1.759,1.48-3.8,2.819-4,3-.014.016.017-.013,0,0a17.957,17.957,0,0,0-4,8h0s0-.006,0,0c-.032.195-.166.893,0,1a1.581,1.581,0,0,0,1,0h0a37.668,37.668,0,0,1,25-6c.734.077,1.263-.12,2,0,.629.1,1.386-.132,2,0a30.817,30.817,0,0,1,3,1,2.117,2.117,0,0,0,1,0c.16-.1-.024.188,0,0C35.122,42.9,35.689,39.68,35.832,37.3Z" transform="translate(69.56 -42.461)"/></g></g></g></g></g></svg>