<svg xmlns="http://www.w3.org/2000/svg" viewBox="0 0 45.209 63.552">
  <defs>
    <style>
      .cls-1 {
        fill: #e51c3b;
      }
    </style>
  </defs>
  <g id="Symbol_12_1" data-name="Symbol 12 – 1" transform="translate(-815.396 -460.31)">
    <path id="Path_5900" data-name="Path 5900" class="cls-1" d="M389.616,269.451a22.5,22.5,0,0,0-22.706,22.5,22.081,22.081,0,0,0,3.541,11.872l17.5,28.956h1.458a2.077,2.077,0,0,0,1.875,0l17.707-29.164a20.83,20.83,0,0,0,3.123-11.458,22.5,22.5,0,0,0-22.5-22.706Zm0,33.747a11.042,11.042,0,0,1-11.249-11.249A11.249,11.249,0,1,1,389.616,303.2Z" transform="translate(448.486 190.86)"/>
  </g>
</svg>
