<svg xmlns="http://www.w3.org/2000/svg" viewBox="0 0 457 769.063">
  <defs>
    <style>
      .cls-1 {
        fill: #0288d1;
      }

      .cls-2 {
        fill: #eee;
        font-family: HelveticaNeue-Medium, Helvetica Neue;
        font-weight: 500;
      }

      .cls-2, .cls-6 {
        font-size: 20px;
      }

      .cls-3, .cls-5 {
        fill: none;
      }

      .cls-4 {
        fill: #4edff2;
      }

      .cls-5 {
        stroke: #c9c9c9;
        stroke-linecap: round;
        stroke-miterlimit: 10;
      }

      .cls-5, .cls-7 {
        stroke-width: 3px;
      }

      .cls-6 {
        fill: rgba(238,238,238,0.87);
        font-family: HelveticaNeue-Bold, Helvetica Neue;
        font-weight: 700;
        opacity: 0.7;
      }

      .cls-7 {
        fill: #212121;
        stroke: #707070;
      }

      .cls-8 {
        stroke: none;
      }
    </style>
  </defs>
  <g id="content-b" transform="translate(-860 -201.937)">
    <g id="timeline" transform="translate(84.562 130.844)">
      <path id="Path_1358" data-name="Path 1358" class="cls-1" d="M700.3,76.7h-80c-6.231,0-11,4.76-11,10v17c0,5.381,4.769,10,11,10h80a14.874,14.874,0,0,0,7-2l28-16-28-17A13.414,13.414,0,0,0,700.3,76.7Z" transform="translate(166.137 2.455)"/>
      <path id="Path_1649" data-name="Path 1649" class="cls-1" d="M700.3,76.7h-80c-6.231,0-11,4.76-11,10v17c0,5.381,4.769,10,11,10h80a14.874,14.874,0,0,0,7-2l28-16-28-17A13.414,13.414,0,0,0,700.3,76.7Z" transform="translate(166.137 227.455)"/>
      <path id="Path_1650" data-name="Path 1650" class="cls-1" d="M700.3,76.7h-80c-6.231,0-11,4.76-11,10v17c0,5.381,4.769,10,11,10h80a14.874,14.874,0,0,0,7-2l28-16-28-17A13.414,13.414,0,0,0,700.3,76.7Z" transform="translate(166.137 438.455)"/>
      <path id="Path_1651" data-name="Path 1651" class="cls-1" d="M700.3,76.7h-80c-6.231,0-11,4.76-11,10v17c0,5.381,4.769,10,11,10h80a14.874,14.874,0,0,0,7-2l28-16-28-17A13.414,13.414,0,0,0,700.3,76.7Z" transform="translate(166.137 720.455)"/>
      <text id="_20xx" data-name="20xx" class="cls-2" transform="translate(808.438 105.156)"><tspan x="0" y="0">20xx</tspan></text>
      <text id="_20xx-2" data-name="20xx" class="cls-2" transform="translate(808.438 330.156)"><tspan x="0" y="0">20xx</tspan></text>
      <text id="_20xx-3" data-name="20xx" class="cls-2" transform="translate(808.438 541.156)"><tspan x="0" y="0">20xx</tspan></text>
      <text id="_2018" data-name="2018" class="cls-2" transform="translate(808.438 823.156)"><tspan x="0" y="0">2018</tspan></text>
      <g id="Group_195" data-name="Group 195" transform="translate(917.652 71.1)">
        <path id="Path_1356" data-name="Path 1356" class="cls-3" d="M727,119.7c-2.832,0-5.451-1.442-8-3a15.95,15.95,0,0,1-8-12c-.425-5.1,1.177-10.6,5-14a102.527,102.527,0,0,1,29-18h0c.141,0,0-.142,0,0,.425,2.832.682,16.724-3,34a15.431,15.431,0,0,1-9,11c-1.7.85-3.734,2-6,2Z" transform="translate(-709.215 -70.642)"/>
        <path id="Path_1357" data-name="Path 1357" class="cls-4" d="M744.426,74.156a142.387,142.387,0,0,1-3,33,13.424,13.424,0,0,1-8,10,14.1,14.1,0,0,1-6,1,17.172,17.172,0,0,1-8-2,14.076,14.076,0,0,1-2-23c11.612-10.338,22.893-17.159,27-19m1-3c-.283,0-.717-.142-1,0a119.109,119.109,0,0,0-29,19,17.686,17.686,0,0,0-6,15,18.654,18.654,0,0,0,9,14,17.87,17.87,0,0,0,9,2,16.832,16.832,0,0,0,7-1c5.1-2.266,8.867-7.477,10-13,3.682-17.7,3.283-31.168,3-34a4.45,4.45,0,0,0-1-2c-.283-.142-.717,0-1,0Z" transform="translate(-709.639 -71.1)"/>
      </g>
      <g id="Group_196" data-name="Group 196" transform="translate(917.652 291.445)">
        <path id="Path_1360" data-name="Path 1360" class="cls-3" d="M727,274.954a14.642,14.642,0,0,1-8-2c-4.39-2.549-7.434-7.9-8-13a14.992,14.992,0,0,1,5-13c13.311-11.612,26.309-18.009,29-19h0c.141,0,0-.142,0,0,.425,2.832.682,16.724-3,34-1.133,5.1-4.327,9.876-9,12a15.684,15.684,0,0,1-6,1Z" transform="translate(-709.215 -226.242)"/>
        <path id="Path_1361" data-name="Path 1361" class="cls-4" d="M744.426,230.411c.283,4.531.115,16.848-3,32a13.424,13.424,0,0,1-8,10c-1.841.85-3.876,2-6,2a17.172,17.172,0,0,1-8-2c-4.107-2.407-6.575-7.327-7-12a14.025,14.025,0,0,1,5-12,123.8,123.8,0,0,1,27-18m1-4c-.283,0-.717-.142-1,0-2.691,1.133-15.405,8.1-29,20a17.686,17.686,0,0,0-6,15c.566,5.664,4.044,10.168,9,13a17.87,17.87,0,0,0,9,2,16.832,16.832,0,0,0,7-1c5.1-2.266,8.867-7.477,10-13,3.682-17.7,3.283-31.168,3-34-.142-.566-.575-.717-1-1-.283-.283-.717-1-1-1Z" transform="translate(-709.639 -226.7)"/>
      </g>
      <g id="Group_199" data-name="Group 199" transform="translate(917.652 291.445)">
        <path id="Path_1367" data-name="Path 1367" class="cls-4" d="M744.426,230.411c.283,4.531.115,16.848-3,32a13.424,13.424,0,0,1-8,10c-1.841.85-3.876,2-6,2a17.172,17.172,0,0,1-8-2c-4.107-2.407-6.575-7.327-7-12a14.025,14.025,0,0,1,5-12,123.8,123.8,0,0,1,27-18m1-4c-.283,0-.717-.142-1,0-2.691,1.133-15.405,8.1-29,20a17.686,17.686,0,0,0-6,15c.566,5.664,4.044,10.168,9,13a17.87,17.87,0,0,0,9,2,16.832,16.832,0,0,0,7-1c5.1-2.266,8.867-7.477,10-13,3.682-17.7,3.283-31.168,3-34-.142-.566-.575-.717-1-1-.283-.283-.717-1-1-1Z" transform="translate(-709.639 -226.7)"/>
      </g>
      <g id="Group_224" data-name="Group 224" transform="translate(917.652 508.445)">
        <path id="Path_1367-2" data-name="Path 1367" class="cls-4" d="M744.426,230.411c.283,4.531.115,16.848-3,32a13.424,13.424,0,0,1-8,10c-1.841.85-3.876,2-6,2a17.172,17.172,0,0,1-8-2c-4.107-2.407-6.575-7.327-7-12a14.025,14.025,0,0,1,5-12,123.8,123.8,0,0,1,27-18m1-4c-.283,0-.717-.142-1,0-2.691,1.133-15.405,8.1-29,20a17.686,17.686,0,0,0-6,15c.566,5.664,4.044,10.168,9,13a17.87,17.87,0,0,0,9,2,16.832,16.832,0,0,0,7-1c5.1-2.266,8.867-7.477,10-13,3.682-17.7,3.283-31.168,3-34-.142-.566-.575-.717-1-1-.283-.283-.717-1-1-1Z" transform="translate(-709.639 -226.7)"/>
      </g>
      <g id="Group_200" data-name="Group 200" transform="translate(917.652 790.445)">
        <path id="Path_1367-3" data-name="Path 1367" class="cls-4" d="M744.426,230.411c.283,4.531.115,16.848-3,32a13.424,13.424,0,0,1-8,10c-1.841.85-3.876,2-6,2a17.172,17.172,0,0,1-8-2c-4.107-2.407-6.575-7.327-7-12a14.025,14.025,0,0,1,5-12,123.8,123.8,0,0,1,27-18m1-4c-.283,0-.717-.142-1,0-2.691,1.133-15.405,8.1-29,20a17.686,17.686,0,0,0-6,15c.566,5.664,4.044,10.168,9,13a17.87,17.87,0,0,0,9,2,16.832,16.832,0,0,0,7-1c5.1-2.266,8.867-7.477,10-13,3.682-17.7,3.283-31.168,3-34-.142-.566-.575-.717-1-1-.283-.283-.717-1-1-1Z" transform="translate(-709.639 -226.7)"/>
      </g>
      <line id="Line_204" data-name="Line 204" class="cls-5" y2="158" transform="translate(935.938 131.656)"/>
      <line id="Line_205" data-name="Line 205" class="cls-5" y2="157" transform="translate(935.938 348.656)"/>
      <line id="Line_206" data-name="Line 206" class="cls-5" y2="212" transform="translate(935.938 568.656)"/>
    </g>
    <text id="Invervision_inc_xxxxxxxx" data-name="Invervision inc, xxxxxxxx" class="cls-6" transform="translate(1060 294)"><tspan x="0" y="20">Invervision inc, xxxxxxxx</tspan></text>
    <text id="Invervision_inc_xxxxxxxx-2" data-name="Invervision inc, xxxxxxxx" class="cls-6" transform="translate(1060 369)"><tspan x="0" y="20">Invervision inc, xxxxxxxx</tspan></text>
    <text id="Invervision_inc_xxxxxxxx-3" data-name="Invervision inc, xxxxxxxx" class="cls-6" transform="translate(1060 489)"><tspan x="0" y="20">Invervision inc, xxxxxxxx</tspan></text>
    <text id="Invervision_inc_xxxxxxxx-4" data-name="Invervision inc, xxxxxxxx" class="cls-6" transform="translate(1060 580)"><tspan x="0" y="20">Invervision inc, xxxxxxxx</tspan></text>
    <text id="Invervision_inc_xxxxxxxx-5" data-name="Invervision inc, xxxxxxxx" class="cls-6" transform="translate(1060 720)"><tspan x="0" y="20">Invervision inc, xxxxxxxx</tspan></text>
    <text id="Invervision_inc_xxxxxxxx-6" data-name="Invervision inc, xxxxxxxx" class="cls-6" transform="translate(1060 840)"><tspan x="0" y="20">Invervision inc, xxxxxxxx</tspan></text>
    <g id="Ellipse_20" data-name="Ellipse 20" class="cls-7" transform="translate(1010 297)">
      <circle class="cls-8" cx="10" cy="10" r="10"/>
      <circle class="cls-3" cx="10" cy="10" r="8.5"/>
    </g>
    <g id="Ellipse_21" data-name="Ellipse 21" class="cls-7" transform="translate(1010 372)">
      <circle class="cls-8" cx="10" cy="10" r="10"/>
      <circle class="cls-3" cx="10" cy="10" r="8.5"/>
    </g>
    <g id="Ellipse_23" data-name="Ellipse 23" class="cls-7" transform="translate(1010 587)">
      <circle class="cls-8" cx="10" cy="10" r="10"/>
      <circle class="cls-3" cx="10" cy="10" r="8.5"/>
    </g>
    <g id="Ellipse_25" data-name="Ellipse 25" class="cls-7" transform="translate(1010 843)">
      <circle class="cls-8" cx="10" cy="10" r="10"/>
      <circle class="cls-3" cx="10" cy="10" r="8.5"/>
    </g>
    <g id="Ellipse_24" data-name="Ellipse 24" class="cls-7" transform="translate(1010 723)">
      <circle class="cls-8" cx="10" cy="10" r="10"/>
      <circle class="cls-3" cx="10" cy="10" r="8.5"/>
    </g>
    <g id="Ellipse_22" data-name="Ellipse 22" class="cls-7" transform="translate(1010 492)">
      <circle class="cls-8" cx="10" cy="10" r="10"/>
      <circle class="cls-3" cx="10" cy="10" r="8.5"/>
    </g>
  </g>
</svg>
